# xmcd CD database file
#
# Track frame offsets:
#	150
#	49337
#	136205
#	172300
#
# Disc length: 3417 seconds
#
# Revision: 0
# Processed by: cddbd v1.5.1PL2 Copyright (c) Steve Scherf et al.
# Submitted via: CDex 1.50Beta7
#
DISCID=380d5704
DTITLE=Harold Moses - Edges of the Soul
DYEAR=1995
DGENRE=New Age
TTITLE0=The Circle - Thought Becomes
TTITLE1=The Awakening
TTITLE2=Cantadora
TTITLE3=The Dying - Transformation - The Circle
EXTD=YEAR: 1995
EXTT0=
EXTT1=
EXTT2=
EXTT3=
PLAYORDER=
